<svg width="41" height="40" viewBox="0 0 41 40" fill="none" xmlns="http://www.w3.org/2000/svg">
<g filter="url(#filter0_b_2_142)">
<path d="M20.4998 39.9996C17.7998 39.9996 15.1806 39.4708 12.7149 38.4279C10.3334 37.4206 8.19451 35.9786 6.35776 34.1418C4.52102 32.3051 3.07897 30.1662 2.07167 27.7847C1.02879 25.319 0.5 22.6998 0.5 19.9998C0.5 17.2998 1.02879 14.6806 2.07167 12.2149C3.07897 9.83337 4.52102 7.69451 6.35776 5.85776C8.19451 4.02102 10.3334 2.57897 12.7149 1.57167C15.1806 0.52879 17.7998 0 20.4998 0C23.1998 0 25.819 0.52879 28.2847 1.57167C30.6662 2.57897 32.8051 4.02102 34.6418 5.85776C36.4786 7.69451 37.9206 9.83337 38.9279 12.2149C39.9708 14.6806 40.4996 17.2998 40.4996 19.9998C40.4996 22.6998 39.9708 25.319 38.9279 27.7847C37.9206 30.1662 36.4786 32.3051 34.6418 34.1418C32.8051 35.9786 30.6662 37.4206 28.2847 38.4279C25.819 39.4708 23.1998 39.9996 20.4998 39.9996ZM15.5003 17.7498V20.9493H18.2066V28.9998H21.5114V20.9493H24.0782L24.5003 17.7498H21.5114V15.5349C21.5114 15.0218 21.6062 14.6433 21.7931 14.4099C22.026 14.1304 22.4636 13.9887 23.0936 13.9887H24.7811V11.1402C24.1536 11.0474 23.3254 10.9998 22.3205 10.9998C21.084 10.9998 20.0784 11.3726 19.3316 12.1077C18.5851 12.8425 18.2066 13.8893 18.2066 15.219V17.7498H15.5003Z" fill="white"/>
</g>
<defs>
<filter id="filter0_b_2_142" x="-9.5" y="-10" width="59.9996" height="59.9996" filterUnits="userSpaceOnUse" color-interpolation-filters="sRGB">
<feFlood flood-opacity="0" result="BackgroundImageFix"/>
<feGaussianBlur in="BackgroundImageFix" stdDeviation="5"/>
<feComposite in2="SourceAlpha" operator="in" result="effect1_backgroundBlur_2_142"/>
<feBlend mode="normal" in="SourceGraphic" in2="effect1_backgroundBlur_2_142" result="shape"/>
</filter>
</defs>
</svg>
