<svg width="16" height="16" viewBox="0 0 16 16" fill="none" xmlns="http://www.w3.org/2000/svg">
<g clip-path="url(#clip0_16_92)">
<path d="M15.9107 2.95337C15.8608 2.89984 15.7947 2.86414 15.7226 2.85174C15.6505 2.83934 15.5763 2.85092 15.5114 2.88471C15.3506 2.95831 15.184 3.01851 15.0134 3.06471C15.274 2.72271 15.4854 2.33404 15.576 1.98604C15.593 1.91985 15.5893 1.85004 15.5654 1.78602C15.5414 1.72201 15.4984 1.66688 15.4422 1.62808C15.3859 1.58927 15.3191 1.56865 15.2508 1.569C15.1825 1.56935 15.1159 1.59066 15.06 1.63004C14.8647 1.76937 13.958 2.17071 13.3734 2.30004C12.6327 1.63271 11.894 1.33337 11.0007 1.33337C10.3307 1.33337 9.71002 1.52471 8.98869 1.95271C7.73069 2.69937 7.51336 4.31337 7.60602 5.30271C4.19136 4.97804 2.27602 2.99137 1.59536 2.12671C1.56067 2.08519 1.51689 2.05223 1.46741 2.03038C1.41792 2.00853 1.36407 1.99837 1.31002 2.00071C1.2558 2.00439 1.20331 2.02134 1.15716 2.05005C1.11102 2.07876 1.07262 2.11836 1.04536 2.16537C0.231356 3.56071 0.564689 4.99604 1.19069 5.96337C1.08336 5.88998 0.979473 5.81167 0.879356 5.72871C0.830633 5.68834 0.771426 5.66267 0.708655 5.6547C0.645885 5.64674 0.582144 5.6568 0.524881 5.68372C0.467618 5.71064 0.4192 5.7533 0.385285 5.80672C0.351369 5.86013 0.333358 5.9221 0.333356 5.98537C0.333356 7.45071 1.19136 8.49737 2.02869 9.09204C1.94068 9.06805 1.85311 9.04249 1.76602 9.01537C1.70486 8.99667 1.63961 8.99593 1.57804 9.01323C1.51647 9.03052 1.46115 9.06514 1.41867 9.11295C1.3762 9.16076 1.34834 9.21977 1.33841 9.28295C1.32849 9.34614 1.33692 9.41084 1.36269 9.46937C1.89802 10.6727 2.96336 11.57 4.15602 11.882C3.11936 12.5147 1.69269 12.8254 0.372689 12.67C0.296556 12.6614 0.219776 12.6793 0.155272 12.7206C0.0907677 12.762 0.0424779 12.8243 0.0185305 12.8971C-0.00541699 12.9699 -0.00355996 13.0487 0.023789 13.1202C0.0511379 13.1918 0.102309 13.2518 0.168689 13.29C1.79069 14.216 3.47669 14.6667 5.32136 14.6667H5.33336C7.85402 14.6647 10.2214 13.568 11.9987 11.5787C13.714 9.65937 14.614 7.20137 14.4294 4.96337C14.8707 4.63404 15.5374 4.01871 15.9494 3.35671C15.9882 3.2946 16.0055 3.2214 15.9985 3.14847C15.9915 3.07554 15.9606 3.00696 15.9107 2.95337Z" fill="white"/>
<path d="M13.894 4.526C13.8432 4.56005 13.8027 4.6074 13.777 4.66289C13.7512 4.71838 13.7412 4.77988 13.748 4.84067C13.98 6.91333 13.1187 9.32533 11.502 11.1347C9.85268 12.98 7.66202 13.9973 5.33335 14H5.32202C4.07802 14 2.91068 13.7807 1.78735 13.3333C3.10668 13.1913 4.38268 12.6807 5.22468 11.9127C5.27383 11.8678 5.3084 11.8092 5.32395 11.7445C5.3395 11.6797 5.33532 11.6118 5.31194 11.5495C5.28856 11.4872 5.24705 11.4333 5.19276 11.3948C5.13848 11.3562 5.0739 11.3348 5.00735 11.3333C3.97668 11.31 2.97268 10.7313 2.33668 9.838C2.78802 9.904 3.22268 9.86667 3.55002 9.586C3.59981 9.54399 3.63614 9.48826 3.65449 9.42575C3.67284 9.36324 3.67239 9.29671 3.6532 9.23446C3.63401 9.1722 3.59693 9.11696 3.54658 9.07563C3.49622 9.03429 3.43482 9.00869 3.37002 9.002C3.00268 8.96067 1.45335 8.23467 1.08002 6.68133C1.47802 6.90867 1.95335 7.084 2.40002 6.99333C2.46603 6.9798 2.52641 6.94667 2.57328 6.89826C2.62014 6.84984 2.6513 6.78841 2.66268 6.722C2.6736 6.65558 2.66423 6.58742 2.63581 6.52641C2.60738 6.4654 2.56122 6.41437 2.50335 6.38C1.89335 6.01867 0.802684 4.53467 1.41002 2.94067C2.39002 4.02733 4.51202 5.81333 7.98202 5.99933C8.03392 6.00215 8.08575 5.99278 8.13339 5.97199C8.18103 5.9512 8.22314 5.91956 8.25637 5.8796C8.2896 5.83963 8.31302 5.79245 8.32477 5.74182C8.33651 5.69119 8.33626 5.63851 8.32402 5.588C8.16135 4.912 8.18802 3.202 9.32868 2.526C9.94935 2.15733 10.4494 2 11.0007 2C11.7707 2 12.3807 2.26933 13.0414 2.9C13.0778 2.93506 13.1218 2.96129 13.17 2.97666C13.2182 2.99203 13.2693 2.99614 13.3194 2.98867C13.6474 2.94067 14.1 2.792 14.5093 2.62867C14.2674 2.95267 13.9774 3.22333 13.766 3.30933C13.6941 3.33822 13.6344 3.39128 13.5974 3.45938C13.5603 3.52749 13.5482 3.60638 13.563 3.68247C13.5779 3.75857 13.6188 3.82711 13.6787 3.87631C13.7386 3.9255 13.8138 3.95227 13.8913 3.952H13.8927C14.1067 3.95133 14.4074 3.90267 14.712 3.83333C14.4609 4.08851 14.1871 4.32035 13.894 4.526Z" fill="white"/>
<path opacity="0.2" d="M8.32468 5.63804C8.40868 5.64471 8.48335 5.66071 8.56868 5.66537C8.62058 5.66818 8.67242 5.65882 8.72006 5.63803C8.76769 5.61724 8.80981 5.5856 8.84303 5.54564C8.87626 5.50567 8.89969 5.45849 8.91143 5.40786C8.92318 5.35723 8.92292 5.30455 8.91068 5.25404C8.75335 4.60071 8.78335 2.99204 9.81268 2.27271C9.64697 2.34782 9.48561 2.43217 9.32935 2.52537C8.18935 3.20204 8.16202 4.91137 8.32468 5.58737C8.32802 5.6047 8.32268 5.62137 8.32468 5.63804ZM4.64068 12.356C5.06539 12.1537 5.45929 11.8922 5.81068 11.5794C5.86006 11.5345 5.89485 11.4759 5.91054 11.411C5.92623 11.3462 5.9221 11.2781 5.8987 11.2157C5.87529 11.1532 5.83368 11.0992 5.77924 11.0606C5.7248 11.0221 5.66005 11.0007 5.59335 10.9994C4.67868 10.9787 3.78668 10.5194 3.15335 9.79271C2.90268 9.87071 2.62535 9.87937 2.33735 9.83737C2.97335 10.7307 3.97668 11.3094 5.00802 11.3327C5.07471 11.3341 5.13947 11.3554 5.19391 11.394C5.24834 11.4325 5.28996 11.4865 5.31336 11.549C5.33677 11.6115 5.3409 11.6795 5.32521 11.7444C5.30952 11.8092 5.27473 11.8678 5.22535 11.9127C5.04868 12.0734 4.85068 12.2194 4.64068 12.356ZM5.91868 13.666H5.90735C4.82068 13.666 3.79468 13.488 2.80335 13.148C2.47268 13.2334 2.13202 13.2967 1.78735 13.3334C2.91068 13.7807 4.07802 14 5.32202 14H5.33335C6.85335 13.9987 8.31068 13.5574 9.60068 12.7434C8.46068 13.3394 7.21335 13.6647 5.91868 13.666ZM2.50335 6.38004C2.60935 6.44271 2.66135 6.56004 2.65668 6.68071C2.76668 6.68671 2.87735 6.68204 2.98602 6.66004C3.0518 6.64637 3.11192 6.61317 3.15854 6.5648C3.20516 6.51642 3.23611 6.45511 3.24734 6.38887C3.25857 6.32263 3.24957 6.25454 3.2215 6.1935C3.19344 6.13246 3.14761 6.0813 3.09002 6.04671C2.57868 5.74404 1.73535 4.65471 1.82868 3.37337C1.68436 3.23384 1.54473 3.08953 1.41002 2.94071C0.802684 4.53471 1.89335 6.01871 2.50335 6.38004ZM3.37068 9.00204C3.43521 9.0093 3.4962 9.03526 3.54618 9.07671C3.59616 9.11816 3.63295 9.17331 3.65202 9.23537C3.66389 9.28009 3.66592 9.32684 3.65798 9.37242C3.65004 9.418 3.63231 9.46131 3.60602 9.49937C3.80002 9.46071 3.98068 9.38604 4.13602 9.2527C4.18581 9.2107 4.22214 9.15497 4.24049 9.09246C4.25884 9.02995 4.25839 8.96342 4.2392 8.90116C4.22001 8.8389 4.18293 8.78367 4.13258 8.74233C4.08222 8.701 4.02082 8.67539 3.95602 8.6687C3.64468 8.63404 2.48668 8.09937 1.91402 6.99004C1.61989 6.93751 1.33747 6.83299 1.08002 6.68137C1.45335 8.23404 3.00335 8.96071 3.37068 9.00204Z" fill="white"/>
<path d="M15.9107 2.95337C15.8608 2.89984 15.7947 2.86414 15.7226 2.85174C15.6505 2.83934 15.5763 2.85092 15.5114 2.88471C15.3506 2.95831 15.184 3.01851 15.0134 3.06471C15.274 2.72271 15.4854 2.33404 15.576 1.98604C15.593 1.91985 15.5893 1.85004 15.5654 1.78602C15.5414 1.72201 15.4984 1.66688 15.4422 1.62808C15.3859 1.58927 15.3191 1.56865 15.2508 1.569C15.1825 1.56935 15.1159 1.59066 15.06 1.63004C14.8647 1.76937 13.958 2.17071 13.3734 2.30004C12.6327 1.63271 11.894 1.33337 11.0007 1.33337C10.3307 1.33337 9.71002 1.52471 8.98869 1.95271C7.73069 2.69937 7.51336 4.31337 7.60602 5.30271C4.19136 4.97804 2.27602 2.99137 1.59536 2.12671C1.56067 2.08519 1.51689 2.05223 1.46741 2.03038C1.41792 2.00853 1.36407 1.99837 1.31002 2.00071C1.2558 2.00439 1.20331 2.02134 1.15716 2.05005C1.11102 2.07876 1.07262 2.11836 1.04536 2.16537C0.231356 3.56071 0.564689 4.99604 1.19069 5.96337C1.08336 5.88998 0.979473 5.81167 0.879356 5.72871C0.830633 5.68834 0.771426 5.66267 0.708655 5.6547C0.645885 5.64674 0.582144 5.6568 0.524881 5.68372C0.467618 5.71064 0.4192 5.7533 0.385285 5.80672C0.351369 5.86013 0.333358 5.9221 0.333356 5.98537C0.333356 7.45071 1.19136 8.49737 2.02869 9.09204C1.94068 9.06805 1.85311 9.04249 1.76602 9.01537C1.70486 8.99667 1.63961 8.99593 1.57804 9.01323C1.51647 9.03052 1.46115 9.06514 1.41867 9.11295C1.3762 9.16076 1.34834 9.21977 1.33841 9.28295C1.32849 9.34614 1.33692 9.41084 1.36269 9.46937C1.89802 10.6727 2.96336 11.57 4.15602 11.882C3.11936 12.5147 1.69269 12.8254 0.372689 12.67C0.296556 12.6614 0.219776 12.6793 0.155272 12.7206C0.0907677 12.762 0.0424779 12.8243 0.0185305 12.8971C-0.00541699 12.9699 -0.00355996 13.0487 0.023789 13.1202C0.0511379 13.1918 0.102309 13.2518 0.168689 13.29C1.79069 14.216 3.47669 14.6667 5.32136 14.6667H5.33336C7.85402 14.6647 10.2214 13.568 11.9987 11.5787C13.714 9.65937 14.614 7.20137 14.4294 4.96337C14.8707 4.63404 15.5374 4.01871 15.9494 3.35671C15.9882 3.2946 16.0055 3.2214 15.9985 3.14847C15.9915 3.07554 15.9606 3.00696 15.9107 2.95337Z" fill="url(#paint0_linear_16_92)"/>
</g>
<defs>
<linearGradient id="paint0_linear_16_92" x1="0.204023" y1="3.93271" x2="13.214" y2="9.99871" gradientUnits="userSpaceOnUse">
<stop stop-color="white" stop-opacity="0.2"/>
<stop offset="1" stop-color="white" stop-opacity="0"/>
</linearGradient>
<clipPath id="clip0_16_92">
<rect width="16" height="16" fill="white"/>
</clipPath>
</defs>
</svg>
