<svg width="41" height="40" viewBox="0 0 41 40" fill="none" xmlns="http://www.w3.org/2000/svg">
<g filter="url(#filter0_b_2_140)">
<path d="M20.4998 39.9996C17.7998 39.9996 15.1806 39.4708 12.7149 38.4279C10.3334 37.4206 8.19451 35.9786 6.35776 34.1418C4.52102 32.3051 3.07897 30.1662 2.07167 27.7847C1.02879 25.319 0.5 22.6998 0.5 19.9998C0.5 17.2998 1.02879 14.6806 2.07167 12.2149C3.07897 9.83337 4.52102 7.69451 6.35776 5.85776C8.19451 4.02102 10.3334 2.57897 12.7149 1.57167C15.1806 0.52879 17.7998 0 20.4998 0C23.1998 0 25.819 0.52879 28.2847 1.57167C30.6662 2.57897 32.8051 4.02102 34.6418 5.85776C36.4786 7.69451 37.9206 9.83337 38.9279 12.2149C39.9708 14.6806 40.4996 17.2998 40.4996 19.9998C40.4996 22.6998 39.9708 25.319 38.9279 27.7847C37.9206 30.1662 36.4786 32.3051 34.6418 34.1418C32.8051 35.9786 30.6662 37.4206 28.2847 38.4279C25.819 39.4708 23.1998 39.9996 20.4998 39.9996ZM20.4998 10.9998C18.7692 10.9998 17.5053 11.0201 16.7432 11.0601C15.9838 11.1005 15.3146 11.2153 14.7542 11.4012C14.0908 11.64 13.5028 12.0118 13.0064 12.5064C12.5118 13.0028 12.14 13.5908 11.9012 14.2542C11.7153 14.8146 11.6005 15.4838 11.5601 16.2432C11.5201 17.0053 11.4998 18.2692 11.4998 19.9998C11.4998 21.7304 11.5201 22.9943 11.5601 23.7564C11.6005 24.5156 11.7153 25.1848 11.9012 25.7454C12.1405 26.4102 12.5123 26.9982 13.0064 27.4932C13.5015 27.9874 14.0896 28.3457 14.7542 28.5579C15.3112 28.7705 15.9804 28.8989 16.7432 28.9395C17.4884 28.9795 18.7523 28.9998 20.4998 28.9998C22.2473 28.9998 23.5112 28.9795 24.2564 28.9395C25.0189 28.899 25.6881 28.7842 26.2454 28.5984C26.9116 28.3586 27.4996 27.9868 27.9932 27.4932C28.4868 26.9996 28.8586 26.4116 29.0984 25.7454C29.2842 25.1881 29.399 24.5189 29.4395 23.7564C29.4795 23.0112 29.4998 21.7473 29.4998 19.9998C29.4998 18.2639 29.4862 17.0066 29.4593 16.263C29.4072 15.4922 29.2858 14.8163 29.0984 14.2542C28.8591 13.5894 28.4873 13.0014 27.9932 12.5064C27.4982 12.0123 26.9102 11.6405 26.2454 11.4012C25.6848 11.2153 25.0156 11.1005 24.2564 11.0601C23.4943 11.0201 22.2304 10.9998 20.4998 10.9998ZM21.1424 27.3924H19.8572C18.8021 27.3924 17.9639 27.3791 17.366 27.3528C16.3775 27.2987 15.6475 27.1903 15.1961 27.0306C14.397 26.7111 13.8157 26.1301 13.4681 25.3035C13.309 24.8513 13.2009 24.1212 13.1468 23.1336C13.1205 22.5366 13.1072 21.6984 13.1072 20.6424V19.3572C13.1072 18.3021 13.1205 17.4639 13.1468 16.866C13.2008 15.8525 13.3089 15.1224 13.4681 14.6961C13.7894 13.8708 14.3708 13.2894 15.1961 12.9681C15.6494 12.8089 16.3794 12.7008 17.366 12.6468C17.9639 12.6205 18.8021 12.6072 19.8572 12.6072H21.1424C22.1984 12.6072 23.0366 12.6205 23.6336 12.6468C24.6482 12.7009 25.3782 12.809 25.8035 12.9681C26.6301 13.2895 27.2111 13.8709 27.5306 14.6961C27.6903 15.1206 27.7987 15.8506 27.8528 16.866C27.8791 17.4359 27.8924 18.274 27.8924 19.3572V20.6424C27.8924 21.6984 27.8791 22.5366 27.8528 23.1336C27.7987 24.123 27.6903 24.853 27.5306 25.3035C27.211 26.1038 26.6299 26.6849 25.8035 27.0306C25.3801 27.1903 24.65 27.2987 23.6336 27.3528C23.0637 27.3791 22.2256 27.3924 21.1424 27.3924ZM20.4998 15.3792C19.6745 15.3792 18.8972 15.5887 18.1895 16.002C17.4829 16.4151 16.9151 16.9829 16.502 17.6895C16.0887 18.3972 15.8792 19.1745 15.8792 19.9998C15.8792 20.8251 16.0887 21.6024 16.502 22.3101C16.9144 23.0162 17.4821 23.584 18.1895 23.9976C18.8972 24.4109 19.6745 24.6204 20.4998 24.6204C21.3251 24.6204 22.1024 24.4109 22.8101 23.9976C23.517 23.5848 24.0848 23.017 24.4976 22.3101C24.9109 21.6024 25.1204 20.8251 25.1204 19.9998C25.1204 19.1745 24.9109 18.3972 24.4976 17.6895C24.084 16.9821 23.5162 16.4144 22.8101 16.002C22.1024 15.5887 21.3251 15.3792 20.4998 15.3792ZM25.3211 14.0931C25.0294 14.0931 24.7726 14.2015 24.5579 14.4153C24.3447 14.6285 24.2366 14.8853 24.2366 15.1785C24.2366 15.4717 24.3447 15.7285 24.5579 15.9417C24.7711 16.1549 25.0279 16.263 25.3211 16.263C25.6147 16.263 25.8648 16.1549 26.0645 15.9417C26.2646 15.729 26.3794 15.4722 26.4056 15.1785C26.4056 14.8853 26.2975 14.6285 26.0843 14.4153C25.8705 14.2015 25.6137 14.0931 25.3211 14.0931ZM20.4998 23.013C19.6733 23.013 18.9568 22.7157 18.3704 22.1292C17.7839 21.5428 17.4866 20.8263 17.4866 19.9998C17.4866 19.1742 17.7839 18.4577 18.3704 17.8704C18.9577 17.2839 19.6742 16.9866 20.4998 16.9866C21.3263 16.9866 22.0428 17.2839 22.6292 17.8704C23.2157 18.4568 23.513 19.1733 23.513 19.9998C23.513 20.8272 23.2157 21.5437 22.6292 22.1292C22.0437 22.7157 21.3272 23.013 20.4998 23.013Z" fill="white"/>
</g>
<defs>
<filter id="filter0_b_2_140" x="-9.5" y="-10" width="59.9996" height="59.9996" filterUnits="userSpaceOnUse" color-interpolation-filters="sRGB">
<feFlood flood-opacity="0" result="BackgroundImageFix"/>
<feGaussianBlur in="BackgroundImageFix" stdDeviation="5"/>
<feComposite in2="SourceAlpha" operator="in" result="effect1_backgroundBlur_2_140"/>
<feBlend mode="normal" in="SourceGraphic" in2="effect1_backgroundBlur_2_140" result="shape"/>
</filter>
</defs>
</svg>
