<svg width="41" height="40" viewBox="0 0 41 40" fill="none" xmlns="http://www.w3.org/2000/svg">
<g filter="url(#filter0_b_2_144)">
<path d="M20.4998 39.9996C17.7998 39.9996 15.1806 39.4708 12.7149 38.4279C10.3334 37.4206 8.19451 35.9786 6.35776 34.1418C4.52102 32.3051 3.07897 30.1662 2.07167 27.7847C1.02879 25.319 0.5 22.6998 0.5 19.9998C0.5 17.2998 1.02879 14.6806 2.07167 12.2149C3.07897 9.83337 4.52102 7.69451 6.35776 5.85776C8.19451 4.02102 10.3334 2.57897 12.7149 1.57167C15.1806 0.52879 17.7998 0 20.4998 0C23.1998 0 25.819 0.52879 28.2847 1.57167C30.6662 2.57897 32.8051 4.02102 34.6418 5.85776C36.4786 7.69451 37.9206 9.83337 38.9279 12.2149C39.9708 14.6806 40.4996 17.2998 40.4996 19.9998C40.4996 22.6998 39.9708 25.319 38.9279 27.7847C37.9206 30.1662 36.4786 32.3051 34.6418 34.1418C32.8051 35.9786 30.6662 37.4206 28.2847 38.4279C25.819 39.4708 23.1998 39.9996 20.4998 39.9996ZM10.5007 27.9667L10.5003 27.9678C12.5961 29.3157 14.9398 29.9997 17.4659 29.9997C20.1073 29.9997 22.4804 29.3157 24.5192 27.9666C26.3856 26.7606 27.856 25.1154 28.8896 23.0769C29.8941 21.1548 30.4034 19.1311 30.4034 17.0622C30.4034 16.8045 30.3889 16.6152 30.3602 16.4997C31.2502 15.8398 32.0216 15.0395 32.6534 14.1201C31.792 14.4939 30.9183 14.7408 30.0578 14.8554C31.0338 14.2528 31.7035 13.4092 32.0477 12.3462C31.1563 12.8642 30.1805 13.2277 29.1488 13.428C28.7169 12.9961 28.2152 12.6468 27.6566 12.3894C27.0954 12.1308 26.4765 11.9997 25.817 11.9997C25.0148 11.9997 24.2578 12.2035 23.567 12.6054C22.8781 13.0076 22.3249 13.5681 21.9227 14.2713C21.5208 14.9764 21.317 15.7407 21.317 16.5429C21.317 16.8881 21.3461 17.2375 21.4034 17.5815C19.5655 17.4955 17.8117 17.0294 16.1897 16.1973C14.5679 15.3645 13.1777 14.229 12.0578 12.8223C11.6278 13.5384 11.4089 14.3027 11.4089 15.0939C11.4089 15.8842 11.5981 16.6194 11.9714 17.2791C12.3439 17.9389 12.8386 18.4922 13.442 18.9234C12.7242 18.8947 12.0404 18.6903 11.4089 18.3177V18.4041C11.4089 19.4666 11.7583 20.4274 12.4475 21.2598C13.1364 22.0921 14.0097 22.6308 15.0431 22.8609C14.6377 22.9476 14.2301 22.9905 13.8317 22.9905C13.5731 22.9905 13.2966 22.976 13.01 22.9473C13.2965 23.8364 13.8273 24.5865 14.5886 25.1757C15.3496 25.7639 16.245 26.0622 17.2499 26.0622C15.5842 27.3551 13.677 28.0098 11.5817 28.0098C11.1804 28.0098 10.8167 27.9953 10.5007 27.9667Z" fill="white"/>
</g>
<defs>
<filter id="filter0_b_2_144" x="-9.5" y="-10" width="59.9996" height="59.9996" filterUnits="userSpaceOnUse" color-interpolation-filters="sRGB">
<feFlood flood-opacity="0" result="BackgroundImageFix"/>
<feGaussianBlur in="BackgroundImageFix" stdDeviation="5"/>
<feComposite in2="SourceAlpha" operator="in" result="effect1_backgroundBlur_2_144"/>
<feBlend mode="normal" in="SourceGraphic" in2="effect1_backgroundBlur_2_144" result="shape"/>
</filter>
</defs>
</svg>
