<svg width="18" height="18" viewBox="0 0 18 18" fill="none" xmlns="http://www.w3.org/2000/svg">
<path d="M6.0909 17C6.89422 17 7.54544 16.3488 7.54544 15.5455C7.54544 14.7422 6.89422 14.0909 6.0909 14.0909C5.28757 14.0909 4.63635 14.7422 4.63635 15.5455C4.63635 16.3488 5.28757 17 6.0909 17Z" fill="white" stroke="white" stroke-width="2" stroke-linecap="round" stroke-linejoin="round"/>
<path d="M14.8182 17C15.6215 17 16.2727 16.3488 16.2727 15.5455C16.2727 14.7422 15.6215 14.0909 14.8182 14.0909C14.0149 14.0909 13.3636 14.7422 13.3636 15.5455C13.3636 16.3488 14.0149 17 14.8182 17Z" fill="white" stroke="white" stroke-width="2" stroke-linecap="round" stroke-linejoin="round"/>
<path fill-rule="evenodd" clip-rule="evenodd" d="M4.39636 4.63636H17L15.7782 10.7382C15.7117 11.073 15.5295 11.3738 15.2636 11.5879C14.9977 11.8019 14.6649 11.9156 14.3236 11.9091H6.63636C6.28123 11.9121 5.93726 11.7851 5.66931 11.552C5.40137 11.3189 5.22798 10.9958 5.18182 10.6436L4.07636 2.26545C4.03052 1.91581 3.85922 1.59472 3.59433 1.36194C3.32944 1.12916 2.989 1.00053 2.63636 1L1 1" fill="white"/>
<path d="M4.39636 4.63636H17L15.7782 10.7382C15.7117 11.073 15.5295 11.3738 15.2636 11.5879C14.9977 11.8019 14.6649 11.9156 14.3236 11.9091H6.63636C6.28123 11.9121 5.93726 11.7851 5.66931 11.552C5.40137 11.3189 5.22798 10.9958 5.18182 10.6436L4.07636 2.26545C4.03052 1.91581 3.85922 1.59472 3.59433 1.36194C3.32944 1.12916 2.989 1.00053 2.63636 1L1 1" stroke="white" stroke-width="2" stroke-linecap="round" stroke-linejoin="round"/>
</svg>
